<svg width="37" height="24" viewBox="0 0 37 24" fill="none" xmlns="http://www.w3.org/2000/svg">
<path d="M3.08325 6C3.08325 5.73478 3.24568 5.48043 3.5348 5.29289C3.82391 5.10536 4.21604 5 4.62492 5H32.3749C32.7838 5 33.1759 5.10536 33.465 5.29289C33.7542 5.48043 33.9166 5.73478 33.9166 6C33.9166 6.26522 33.7542 6.51957 33.465 6.70711C33.1759 6.89464 32.7838 7 32.3749 7H4.62492C4.21604 7 3.82391 6.89464 3.5348 6.70711C3.24568 6.51957 3.08325 6.26522 3.08325 6ZM3.08325 12.032C3.08325 11.7668 3.24568 11.5124 3.5348 11.3249C3.82391 11.1374 4.21604 11.032 4.62492 11.032H32.3749C32.7838 11.032 33.1759 11.1374 33.465 11.3249C33.7542 11.5124 33.9166 11.7668 33.9166 12.032C33.9166 12.2972 33.7542 12.5516 33.465 12.7391C33.1759 12.9266 32.7838 13.032 32.3749 13.032H4.62492C4.21604 13.032 3.82391 12.9266 3.5348 12.7391C3.24568 12.5516 3.08325 12.2972 3.08325 12.032ZM4.62492 17.064C4.21604 17.064 3.82391 17.1694 3.5348 17.3569C3.24568 17.5444 3.08325 17.7988 3.08325 18.064C3.08325 18.3292 3.24568 18.5836 3.5348 18.7711C3.82391 18.9586 4.21604 19.064 4.62492 19.064H32.3749C32.7838 19.064 33.1759 18.9586 33.465 18.7711C33.7542 18.5836 33.9166 18.3292 33.9166 18.064C33.9166 17.7988 33.7542 17.5444 33.465 17.3569C33.1759 17.1694 32.7838 17.064 32.3749 17.064H4.62492Z" fill="black"/>
</svg>
